<!-- Created with PixiEditor (https://pixieditor.net) -->
<svg version="1.1" viewBox="0 0 256 256" xmlns="http://www.w3.org/2000/svg">
  <path d="M125.507 53.341L115.238 57.264L112.238 65.4564C112.238 65.4564 112.238 74.1102 112.238 74.1102C112.238 74.1102 115.238 82.9948 115.238 82.9948L122.738 86.9179L134.622 86.9179L142.469 82.9948C142.469 82.9948 145.122 76.5333 145.122 76.5333L145.122 65.4564L142.469 57.264L134.622 53.341L125.507 53.341ZM138.274 91.3304L142.469 95.8304L150.327 86.9179L154.774 78.5269C154.774 78.5269 157.452 72.5269 157.452 72.5269L162.863 69.0983C162.863 69.0983 178.501 67.5646 178.501 67.5646L189.601 62.9146L202.276 53.341L210.526 42.0646L212.401 60.9646L207.076 71.0896C207.076 71.0896 199.201 80.1646 199.201 80.1646L195.601 82.9948L202.276 85.4896L207.076 85.4896L202.276 91.3304C202.276 91.3304 193.576 94.5646 193.576 94.5646L188.326 94.5646L188.326 97.7146L193.576 99.2896C193.576 99.2896 193.576 100.865 193.576 100.865L188.326 104.015L182.851 106.79L174.676 104.015L178.501 111.44L174.676 115.6L169.708 115.6C169.708 115.6 158.458 109.45 159.433 112.9L162.863 121.675L154.774 121.675L150.327 114.325L154.774 131.875L164.833 156.25L174.676 167.95L180.283 170.425L170.983 178.975L150.327 189.637L112.238 191.962L99.2741 186.337L76.9991 170.425L80.9741 167.95C80.9741 167.95 94.3241 148.912 94.3241 148.912L103.324 128C103.324 128 103.324 118.987 103.324 118.987L96.4241 121.675L92.0741 121.675L90.4241 118.987L94.3241 115.6L88.4741 117.562L78.4241 115.6L74.6741 111.44C74.6741 111.44 78.4241 108.712 78.4241 108.712L69.1241 106.79L60.4991 99.2896L60.4991 97.7146L65.1491 95.8304L60.4991 94.5646L52.3241 89.1367L49.5491 85.4896L50.8991 82.9948L55.8491 82.9948L52.3241 76.5333L45.2741 65.4564L45.2741 40.2367L58.4741 55.3117L78.4241 65.4564C78.4241 65.4564 93.4991 66.6925 94.3241 67.5646L99.2741 72.5269L108.199 89.1367L112.238 94.5646L112.238 94.5646L118.484 90.5986L138.274 91.3304L138.274 91.3304Z" fill-rule="nonzero" transform="matrix(1.4611875, 0, 0, 1.5931784, -59.794357, -57.659042)" fill="#000000" fill-opacity="1" stroke="#000000" stroke-width="1.1299999952316284" stroke-linecap="round" stroke-linejoin="round" opacity="1" id="Path" />
</svg>