<!-- Created with PixiEditor (https://pixieditor.net) -->
<svg version="1.1" viewBox="0 0 256 256" xmlns="http://www.w3.org/2000/svg">
  <path d="M159.512 48.8156L169.271 54.7066L173.514 54.7066L190.062 48.8156L197.911 27.0444L203.639 37.2897C203.639 37.2897 202.791 50.6085 203.639 48.8156L212.55 60.5976L212.55 81.6004L208.094 100.81C208.094 100.81 212.55 116.946 212.55 116.946L208.094 133.155L203.639 149.163L203.639 159.889L220.438 179.098L238.338 204.712L233.697 212.556L224.15 204.712L215.399 193.506L193.521 179.098L180.792 170.134L173.514 173.976L169.271 193.506L169.271 212.556L173.514 218.639L180.792 218.639L184.903 227.283L167.814 230.008L159.512 218.639L152.07 171.772L150.144 159.889L122.342 159.889L112.544 176.524L105.677 191.285L107.77 204.712L119.159 212.556C119.159 212.556 130.883 214.641 131.135 214.641C131.386 214.641 132.977 223.032 132.977 223.133L119.159 225.56L102.327 218.639L86.8342 204.712L84.3219 173.976C84.3219 173.976 60.7062 185.421 60.2875 185.725L33.8245 196.846L29.1349 218.639L33.8245 218.639L38.8491 227.283L35.6669 232.334C35.6669 232.334 23.5241 232.334 23.5241 232.334L17.662 218.639L17.662 179.098L33.8245 162.976L44.7949 149.163L44.7949 133.155L48.8984 119.299L48.8984 110.301L29.1349 88.2601C29.1349 88.2601 23.5241 52.0647 23.5241 52.0647C23.5241 52.0647 23.5241 33.4952 23.5241 33.4952C23.5241 33.4952 35.8809 16.7119 35.6669 15.903L51.6991 6.60138L72.2163 11.9599L79.4183 20.756L77.2409 28.7433L68.6153 27.0444L58.7336 22.4748L46.9258 27.0444C46.9258 27.0444 38.8491 44.1111 38.8491 44.1111L40.2263 71.4093L46.9258 89.9114L60.2875 100.81L79.4183 93.9556L112.544 77.9811L138.039 76.3634L150.144 83.5419L159.512 88.2601L169.271 81.6004L157.802 54.7066L159.512 48.8156Z" fill-rule="nonzero" transform="matrix(1, 0, 0, 1, 0, 0)" fill="#000000" fill-opacity="1" stroke="#000000" stroke-width="1" stroke-linecap="round" stroke-linejoin="round" opacity="1" id="Path" />
</svg>