<!-- Created with PixiEditor (https://pixieditor.net) -->
<svg version="1.1" viewBox="0 0 256 256" xmlns="http://www.w3.org/2000/svg">
  <path d="M216.892 200.039L230.204 191.601L234.704 185.226L241.079 170.039C241.079 170.039 241.079 158.039 241.079 158.039L241.079 143.789L234.704 131.976L230.204 122L224.767 116.039L224.767 108.164L221.204 95.6012C221.204 95.6012 216.892 81.7262 216.892 81.7262L201.142 68.0387L186.329 63.3512L175.267 59.9762L168.704 59.9762L159.329 47.7887L146.579 40.8512L128.5 35L113.392 40.8512L99.1418 47.7887C99.1418 47.7887 92.3918 56.6012 92.2043 56.7887L87.3293 68.0387L83.7668 77.0387L69.5168 73.4762L48.3293 77.0387L34.2668 85.1012C34.2668 85.1012 20.5793 98.7887 20.5793 98.7887C20.5793 98.7887 14.5793 106.101 14.5793 108.164C14.5793 110.226 14.5793 131.976 14.5793 131.976L20.5793 149.789L34.2668 164.789C34.2668 164.789 43.8293 169.664 44.3918 170.039L58.2668 175.289L65.7668 175.289C65.7668 175.289 72.8918 184.851 72.8918 185.226C72.8918 185.601 83.7668 191.601 83.7668 191.601L99.1418 200.039L118.642 200.039L128.5 196.664L141.517 185.226L141.517 196.664L150.517 203.226L159.329 203.226L168.704 196.664L175.267 203.226L186.329 209L196.829 209L216.892 200.039Z" fill-rule="nonzero" transform="matrix(1, 0, 0, 1, 0, 0)" fill="#000000" fill-opacity="1" stroke="#000000" stroke-width="1" stroke-linecap="round" stroke-linejoin="round" opacity="1" id="Path" />
</svg>