<!-- Created with PixiEditor (https://pixieditor.net) -->
<svg version="1.1" viewBox="0 0 256 256" xmlns="http://www.w3.org/2000/svg">
  <path d="M152.193 125.815L163.78 125.815L176.061 121.602L176.061 110.436L163.78 101.798L176.061 94.4238L181.855 87.4713L176.061 78.2013L167.951 73.5663L163.78 73.5663L161.061 70.6529L166.184 64.4156L167.951 55.8497L167.951 48.6976L161.061 44.7889L148.896 44.7889L142.95 48.6976L142.95 31.7322L136.181 26.2433L126.576 26.2433L120.997 26.2433L115.234 36.8051L112.124 36.8051L112.124 31.7322L105.08 20.9208L93.7379 20.9208L85.1394 24.4969L81.8464 31.7322L81.8464 36.8051L76.907 36.8051L70.9612 31.7322C70.9612 31.7322 59.8017 32.0648 59.5272 31.7322L53.5815 36.8051L51.4777 42.9593L51.4777 50.943C51.4777 50.943 53.5815 54.2696 53.5815 54.2696L38.0093 55.8497L30.3622 62.4317C30.3622 62.4317 30.3622 70.6529 30.3622 70.6529C30.3622 70.6529 35.1417 79.2757 35.4893 78.2013L41.3983 81.2351L30.3622 87.4713L24.3661 94.4238C24.3661 94.4238 23.2365 102.451 24.3661 101.798C25.4959 101.145 30.3622 106.122 30.3622 106.122C30.3622 106.122 37.8354 109.535 38.0093 110.436L44.266 110.436L38.0093 121.602L38.0093 129.587L41.3983 135.591L51.4777 138.356L62.6885 135.591C62.6885 135.591 62.6885 142.623 62.6885 142.623L64.5134 150.128L69.0321 154.078L81.8464 155.659L91.5389 148.39L93.7379 142.623C93.7379 142.623 95.7969 154.078 95.7969 154.078C95.7969 154.078 108.397 160.32 108.397 160.32L115.234 160.32L120.997 154.078L124.126 148.39L120.997 138.356L126.576 144.44C126.576 144.44 138.725 150.128 138.725 150.128L148.896 150.128C148.896 150.128 154.193 138.356 154.193 138.356L158.711 142.623C158.711 142.623 163.026 163.164 163.78 163.48C164.534 163.796 165.922 173.119 166.184 173.277L163.78 183.099C163.78 183.099 161.061 199.086 161.061 199.086L152.193 195.926L132.53 185.237C132.53 185.237 91.5389 178.73 91.5389 178.73C91.5389 178.73 91.5389 187.746 91.5389 187.746C91.5389 187.746 105.08 214.143 105.08 214.143C105.08 214.143 120.997 222.695 120.997 222.695L148.896 235.079L166.184 235.079C166.184 235.079 176.061 233.592 176.061 233.592L199.421 217.605C199.421 217.605 222.219 195.39 222.833 193.996L232.136 176.615C232.136 176.615 232.136 160.32 232.136 160.32L228.864 135.591L226.002 129.587C226.002 129.587 218.845 135.186 218.641 135.591C218.437 135.997 180.441 157.189 181.855 157.468C183.268 157.746 172.022 170.201 171.409 170.294L169.484 163.48L163.78 144.44L158.711 135.591L152.193 125.815Z" fill-rule="nonzero" transform="matrix(1, 0, 0, 1, 0, 0)" fill="#000000" fill-opacity="1" stroke="#000000" stroke-width="1" stroke-linecap="round" stroke-linejoin="round" opacity="1" id="Path" />
</svg>