<!-- Created with PixiEditor (https://pixieditor.net) -->
<svg version="1.1" viewBox="0 0 256 256" xmlns="http://www.w3.org/2000/svg">
  <path d="M123.991 64.7711L95.0247 18.8673L74.3269 10.2096L54.4999 10.2096L36.717 18.8673L23.0221 37.3346C23.0221 37.3346 13.824 64.7711 13.824 64.7711L18.9341 127.056L49.1855 168.786L118.336 244.987C118.336 244.987 138.394 247.213 138.394 244.987L163.468 216.61L202.277 168.786L233.019 127.056L242.176 98.3731L242.176 59.1463L225.17 26.04C225.17 26.04 203.803 8.01126 202.277 10.2096L172.625 10.2096C172.625 10.2096 153.656 26.04 153.656 26.04L132.508 59.1463L123.991 64.7711Z" fill-rule="nonzero" transform="matrix(1, 0, 0, 1, 0, 0)" fill="#000000" fill-opacity="1" stroke="#000000" stroke-width="1" stroke-linecap="round" stroke-linejoin="round" opacity="1" id="Path" />
</svg>