<!-- Created with PixiEditor (https://pixieditor.net) -->
<svg version="1.1" viewBox="0 0 256 256" xmlns="http://www.w3.org/2000/svg">
  <path d="M23.0636 85.8896L40.5182 93.6623L56.3364 98.5714L70.1091 98.5714L81.1546 93.6623L93.5636 85.8896L99.7 77.0259L106.382 69.2532L114.018 66.6623L121.655 72.1169L133.382 83.2987L173.609 106.208L209.882 117.799L235.245 124.344C235.245 124.344 243.291 124.344 243.291 124.344L251.336 132.662C251.336 132.662 256 145.208 256 145.208C256 145.208 256 150.526 256 150.526L251.336 157.071L243.291 166.208L217.927 172.89L173.609 176.162L139.109 176.162L121.655 172.89L106.382 172.89C106.382 172.89 81.1546 172.89 81.1546 172.89C81.1546 172.89 51.5636 174.39 51.1545 172.89L40.5182 172.89L25.6545 172.89L15.8364 172.89C15.8364 172.89 3.97273 162.39 3.97273 162.39L0 154.9L0 128L9.15454 111.662L9.15454 101.026L12.9727 93.6623L23.0636 85.8896Z" fill-rule="nonzero" transform="matrix(0.9822109, 0, 0, 1, 4.554025, 0)" fill="#000000" fill-opacity="1" stroke="#000000" stroke-width="1.1299999952316284" stroke-linecap="round" stroke-linejoin="round" opacity="1" id="Path" />
</svg>